<svg width="128" height="128" viewBox="0 0 128 128" fill="none" xmlns="http://www.w3.org/2000/svg">
  <!-- Back panel (server rack shadow/depth) -->
  <path d="M88 16H24C19.5817 16 16 19.5817 16 24V80C16 84.4183 19.5817 88 24 88H88C92.4183 88 96 84.4183 96 80V24C96 19.5817 92.4183 16 88 16Z" fill="url(#shadow1)"/>
  <path d="M16 24C16 19.5817 19.5817 16 24 16H88C92.4183 16 96 19.5817 96 24V76C96 80.4183 92.4183 84 88 84H24C19.5817 84 16 80.4183 16 76V24Z" fill="#1A5FB4"/>
  <!-- Server slots on back panel -->
  <rect x="24" y="24" width="64" height="12" rx="3" fill="#3584E4"/>
  <rect x="24" y="40" width="64" height="12" rx="3" fill="#3584E4"/>
  <rect x="24" y="56" width="64" height="12" rx="3" fill="#3584E4"/>
  <!-- LEDs on back panel -->
  <circle cx="80" cy="30" r="3" fill="#57E389"/>
  <circle cx="80" cy="46" r="3" fill="#57E389"/>
  <circle cx="80" cy="62" r="3" fill="#57E389"/>
  <!-- Lines on back panel -->
  <rect x="28" y="28" width="20" height="3" rx="1.5" fill="#62A0EA"/>
  <rect x="28" y="44" width="20" height="3" rx="1.5" fill="#62A0EA"/>
  <rect x="28" y="60" width="20" height="3" rx="1.5" fill="#62A0EA"/>
  <!-- Front panel (download card) -->
  <path d="M108 40H44C39.5817 40 36 43.5817 36 48V112C36 116.418 39.5817 120 44 120H108C112.418 120 116 116.418 116 112V48C116 43.5817 112.418 40 108 40Z" fill="url(#shadow2)"/>
  <path d="M116 48C116 43.5817 112.418 40 108 40H44C39.5817 40 36 43.5817 36 48V108C36 112.418 39.5817 116 44 116H108C112.418 116 120 112.418 120 108V48Z" fill="#F6F5F4"/>
  <!-- Correct front panel -->
  <path d="M116 48C116 43.5817 112.418 40 108 40H44C39.5817 40 36 43.5817 36 48V108C36 112.418 39.5817 116 44 116H108C112.418 116 116 112.418 116 108V48Z" fill="#F6F5F4"/>
  <!-- File rows on front panel -->
  <rect x="44" y="50" width="64" height="10" rx="3" fill="#DEDDDA"/>
  <rect x="44" y="64" width="64" height="10" rx="3" fill="#DEDDDA"/>
  <rect x="44" y="78" width="64" height="10" rx="3" fill="#DEDDDA"/>
  <!-- Check marks on file rows -->
  <rect x="48" y="53" width="4" height="4" rx="1" fill="#99C1F1"/>
  <rect x="48" y="67" width="4" height="4" rx="1" fill="#3584E4"/>
  <rect x="48" y="81" width="4" height="4" rx="1" fill="#3584E4"/>
  <!-- Text lines -->
  <rect x="56" y="53" width="24" height="3" rx="1.5" fill="#77767B"/>
  <rect x="56" y="67" width="18" height="3" rx="1.5" fill="#77767B"/>
  <rect x="56" y="81" width="28" height="3" rx="1.5" fill="#77767B"/>
  <!-- Download arrow on front panel -->
  <path d="M76 94 L76 110" stroke="#1A5FB4" stroke-width="5" stroke-linecap="round"/>
  <path d="M68 104 L76 112 L84 104" stroke="#1A5FB4" stroke-width="5" stroke-linecap="round" stroke-linejoin="round" fill="none"/>
  <defs>
    <linearGradient id="shadow1" x1="16" y1="44" x2="96" y2="44" gradientUnits="userSpaceOnUse">
      <stop stop-color="#1A5FB4"/>
      <stop offset="0.04" stop-color="#3584E4"/>
      <stop offset="0.08" stop-color="#1A5FB4"/>
      <stop offset="0.92" stop-color="#1A5FB4"/>
      <stop offset="0.96" stop-color="#3584E4"/>
      <stop offset="1" stop-color="#1A5FB4"/>
    </linearGradient>
    <linearGradient id="shadow2" x1="36" y1="72" x2="116" y2="72" gradientUnits="userSpaceOnUse">
      <stop stop-color="#BABDB6"/>
      <stop offset="0.04" stop-color="#F6F5F4"/>
      <stop offset="0.08" stop-color="#D5D3CF"/>
      <stop offset="0.92" stop-color="#DEDDDA"/>
      <stop offset="0.96" stop-color="#F6F5F4"/>
      <stop offset="1" stop-color="#BABDB6"/>
    </linearGradient>
  </defs>
</svg>
